<svg width="80" height="81" viewBox="0 0 80 81" fill="none" xmlns="http://www.w3.org/2000/svg">
<g id="japan 1" clip-path="url(#clip0_1930_2257)">
<path id="Vector" d="M39.8411 80.0325C61.844 80.0325 79.6823 62.1927 79.6823 40.1914C79.6823 18.1901 61.844 0.350281 39.8411 0.350281C17.8382 0.350281 0 18.1901 0 40.1914C0 62.1927 17.8382 80.0325 39.8411 80.0325Z" fill="#F0F0F0"/>
<path id="Vector_2" d="M39.8413 57.5239C43.2694 57.5257 46.621 56.5109 49.4722 54.6077C52.3235 52.7046 54.5463 49.9986 55.8595 46.8321C57.1727 43.6655 57.5173 40.1806 56.8498 36.8182C56.1823 33.4558 54.5325 30.3668 52.1093 27.9421C49.6861 25.5173 46.5982 23.8656 43.2361 23.196C39.8741 22.5263 36.389 22.8688 33.2217 24.18C30.0543 25.4912 27.3469 27.7123 25.442 30.5624C23.537 33.4124 22.5201 36.7634 22.5198 40.1914C22.5198 44.7864 24.3444 49.1933 27.5925 52.4435C30.8406 55.6936 35.2464 57.521 39.8413 57.5239Z" fill="#D80027"/>
</g>
<defs>
<clipPath id="clip0_1930_2257">
<rect width="79.6823" height="79.6823" fill="white" transform="translate(0 0.350281)"/>
</clipPath>
</defs>
</svg>
