<svg width="80" height="81" viewBox="0 0 80 81" fill="none" xmlns="http://www.w3.org/2000/svg">
<g id="united-kingdom 1">
<g id="_x30_1_United_Kingdom_x2C__country_x2C__national_x2C__flag_x2C__world_flag">
<g id="XMLID_1_">
<path id="XMLID_1007_" d="M40.2563 83.9147C64.1079 83.9147 83.4434 64.5792 83.4434 40.7276C83.4434 16.876 64.1079 -2.45959 40.2563 -2.45959C16.4046 -2.45959 -2.93091 16.876 -2.93091 40.7276C-2.93091 64.5792 16.4046 83.9147 40.2563 83.9147Z" fill="#0053B5"/>
<path id="XMLID_1006_" d="M40.2561 79.4161C61.6232 79.4161 78.9446 62.0947 78.9446 40.7276C78.9446 19.3606 61.6232 2.03912 40.2561 2.03912C18.8891 2.03912 1.56763 19.3606 1.56763 40.7276C1.56763 62.0947 18.8891 79.4161 40.2561 79.4161Z" fill="white"/>
</g>
<g id="XMLID_712_">
<g id="Group">
<path id="XMLID_1005_" d="M9.27337 26.2575C8.80587 27.2568 8.38552 28.2821 8.01465 29.331H13.6642L9.27337 26.2575Z" fill="#0053B5"/>
<path id="XMLID_1004_" d="M28.8593 8.48602C23.8773 10.2472 19.426 13.1295 15.8076 16.8309L28.8593 25.532V8.48602Z" fill="#0053B5"/>
<path id="XMLID_1003_" d="M64.7043 16.831C61.0859 13.1295 56.6346 10.2471 51.6526 8.48615V25.5323L64.7043 16.831Z" fill="#0053B5"/>
<path id="XMLID_1002_" d="M71.2385 55.1976C71.706 54.1983 72.1264 53.173 72.4973 52.1241H66.8477L71.2385 55.1976Z" fill="#0053B5"/>
<path id="XMLID_1001_" d="M72.4973 29.331C72.1264 28.2819 71.706 27.2566 71.2385 26.2575L66.8477 29.331H72.4973Z" fill="#0053B5"/>
<path id="XMLID_1000_" d="M15.8076 64.6241C19.426 68.3254 23.8773 71.208 28.8593 72.9689V55.9228L15.8076 64.6241Z" fill="#0053B5"/>
<path id="XMLID_999_" d="M8.01465 52.1241C8.38552 53.1732 8.80587 54.1985 9.27337 55.1976L13.6642 52.1241H8.01465Z" fill="#0053B5"/>
<path id="XMLID_998_" d="M51.6523 72.9691C56.6343 71.208 61.0857 68.3256 64.704 64.6243L51.6523 55.9232V72.9691Z" fill="#0053B5"/>
</g>
<g id="XMLID_721_">
<path id="XMLID_997_" d="M28.8593 25.5322L15.8076 16.8311C15.0639 17.5919 14.3552 18.3871 13.6846 19.2145L28.8594 29.3311H19.3622L10.7836 23.3921C10.2366 24.3201 9.7324 25.276 9.27317 26.2576L13.664 29.3311H8.01445C7.57772 30.5666 7.20901 31.8339 6.91479 33.1299H28.8593V48.3253H6.91479C7.20883 49.6213 7.57772 50.8887 8.01445 52.1242H13.664L9.27317 55.1977C9.7324 56.1791 10.2366 57.1351 10.7836 58.0631L19.3622 52.1242H28.8594L13.6846 62.2408C14.3552 63.0682 15.0639 63.8633 15.8076 64.6242L28.8593 55.923V72.9692C30.0948 73.4059 31.3621 73.7746 32.6581 74.0688C32.6581 71.7576 32.6581 9.7313 32.6581 7.3866C31.3621 7.68063 30.0948 8.04952 28.8593 8.48625V25.5322Z" fill="white"/>
<path id="XMLID_996_" d="M51.6524 33.1299H73.5968C73.3028 31.8339 72.9339 30.5665 72.4972 29.331H66.8476L71.2385 26.2575C70.7792 25.2761 70.275 24.32 69.728 23.392L61.1494 29.331H51.6522L66.8271 19.2144C66.1564 18.387 65.4478 17.5918 64.7041 16.831L51.6524 25.5322V8.48601C50.4169 8.04928 49.1495 7.68057 47.8535 7.38635V74.0686C49.1495 73.7745 50.4169 73.4057 51.6524 72.9689V55.9228L64.7041 64.6239C65.4478 63.8631 66.1564 63.0679 66.8271 62.2405L51.6522 52.1239H61.1494L69.728 58.0629C70.275 57.1349 70.7794 56.179 71.2385 55.1974L66.8476 52.1239H72.4972C72.9339 50.8884 73.3026 49.6211 73.5968 48.3251H51.6524V33.1299Z" fill="white"/>
</g>
<g id="XMLID_713_">
<path id="XMLID_995_" d="M6.91515 48.3253H28.8596V33.1299H6.91515C5.81748 37.9672 5.75 43.1909 6.91515 48.3253Z" fill="#D80027"/>
<path id="XMLID_994_" d="M73.5971 33.1299H51.6526V48.3253H73.5971C74.6947 43.488 74.762 38.2643 73.5971 33.1299Z" fill="#D80027"/>
<path id="XMLID_993_" d="M32.6582 7.38653V74.0688C37.4955 75.1664 42.7192 75.2339 47.8536 74.0688C47.8536 69.7436 47.8536 10.3472 47.8536 7.38653C43.0165 6.28886 37.7926 6.22138 32.6582 7.38653Z" fill="#D80027"/>
<path id="XMLID_992_" d="M69.7284 23.3921C68.8641 21.9259 67.8938 20.5299 66.8275 19.2145L51.6526 29.3311H61.1498L69.7284 23.3921Z" fill="#D80027"/>
<path id="XMLID_991_" d="M10.7839 23.3921L19.3625 29.3311H28.8597L13.6849 19.2145C12.6185 20.5299 11.6482 21.9259 10.7839 23.3921Z" fill="#D80027"/>
<path id="XMLID_990_" d="M10.7839 58.0631C11.6482 59.5293 12.6185 60.9253 13.6849 62.2407L28.8597 52.1241H19.3625L10.7839 58.0631Z" fill="#D80027"/>
<path id="XMLID_989_" d="M51.6526 52.1241L66.8275 62.2407C67.8937 60.9253 68.8641 59.5295 69.7284 58.0631L61.1498 52.1241H51.6526Z" fill="#D80027"/>
</g>
</g>
</g>
</g>
</svg>
