<svg width="74" height="74" viewBox="0 0 74 74" fill="none" xmlns="http://www.w3.org/2000/svg">
<g id="united-states-of-america 1" clip-path="url(#clip0_1930_1899)">
<g id="Group">
<path id="Vector" d="M73.5203 40.3596H0.804688V40.3606H73.5203V40.3596Z" fill="#C42126"/>
<path id="Vector_2" d="M69.7304 20.4228H4.59229V20.4239H69.7304V20.4228Z" fill="#C42126"/>
<path id="Vector_3" d="M72.3182 27.0673H2.00195V27.0684H72.3182V27.0673Z" fill="#C42126"/>
<path id="Vector_4" d="M16.3365 66.9393H57.9858L57.988 66.937H16.3342L16.3365 66.9393Z" fill="#C42126"/>
<path id="Vector_5" d="M37.1608 0.422729C36.4434 0.422729 35.7318 0.448635 35.0254 0.489036H39.2966C38.5896 0.448635 37.8781 0.422729 37.1608 0.422729Z" fill="#C42126"/>
<path id="Vector_6" d="M73.5295 33.7134H0.790771V33.7145H73.5295V33.7134Z" fill="#C42126"/>
</g>
<path id="Vector_7" d="M47.9553 13.7779H65.3944C63.323 11.2563 60.9156 9.02403 58.2485 7.13428H45.1533C46.2369 9.04068 47.1687 11.2902 47.9553 13.7779Z" fill="#E7E7E7"/>
<path id="Vector_8" d="M45.153 7.13436H58.2482C52.8346 3.29796 46.3351 0.895491 39.2966 0.489014H38.1721C41.485 0.905977 43.0067 3.35779 45.153 7.13436Z" fill="#DC3027"/>
<path id="Vector_9" d="M72.3202 27.068C71.6709 24.7522 70.8001 22.5303 69.7299 20.4243H49.667C50.0735 22.5574 50.3942 24.7855 50.6317 27.068H72.3202Z" fill="#E7E7E7"/>
<path id="Vector_10" d="M48.5386 20.4232H69.7294C68.5218 18.048 67.0711 15.8192 65.3941 13.7784H46.8831C47.5358 15.8446 48.09 18.0734 48.5386 20.4232Z" fill="#DC3027"/>
<path id="Vector_11" d="M51.4001 40.358H73.5175C73.6225 39.2342 73.6819 38.0953 73.6819 36.9443C73.6819 35.855 73.6249 34.7796 73.5314 33.7139H51.4054C51.4774 35.9236 51.4762 38.1496 51.4001 40.358Z" fill="#E7E7E7"/>
<path id="Vector_12" d="M73.5322 33.7128C73.3321 31.4309 72.921 29.2109 72.3207 27.0692H49.7004C49.9276 29.2448 50.0776 31.4707 50.1509 33.7128H73.5322Z" fill="#DC3027"/>
<path id="Vector_13" d="M49.2856 53.648H69.6345C70.7198 51.5443 71.6043 49.3207 72.2675 47.0032H50.2695C50.0272 49.2891 49.6984 51.5167 49.2856 53.648Z" fill="#E7E7E7"/>
<path id="Vector_14" d="M72.2682 47.0028C72.8812 44.8617 73.3068 42.6416 73.5184 40.3591H50.7112C50.6333 42.6029 50.4788 44.8282 50.2471 47.0028H72.2682Z" fill="#DC3027"/>
<path id="Vector_15" d="M57.9883 66.937C60.694 65.0549 63.1354 62.8203 65.2397 60.2934H48.1046C47.3036 62.7915 46.3527 65.0374 45.2495 66.937H57.9883Z" fill="#E7E7E7"/>
<g id="Group_2">
<path id="Vector_16" d="M47.4597 60.293H65.2395C66.9361 58.2546 68.4089 56.0257 69.6342 53.6483H49.136C48.6812 55.9997 48.1212 58.2296 47.4597 60.293Z" fill="#DC3027"/>
<path id="Vector_17" d="M35.8372 73.4389C35.7633 73.4366 35.6896 73.4332 35.6157 73.4308C35.6896 73.433 35.7634 73.4366 35.8372 73.4389Z" fill="#DC3027"/>
<path id="Vector_18" d="M37.1606 73.4648C44.9033 73.4648 52.0774 71.048 57.9858 66.9395H44.7684C42.4225 70.9811 40.8748 73.4648 37.1606 73.4648Z" fill="#DC3027"/>
</g>
<path id="Vector_19" d="M37.161 73.4647C36.7175 73.4647 36.277 73.4544 35.8376 73.4388C36.2816 73.4537 36.7226 73.4647 37.161 73.4647Z" fill="#C42126"/>
<path id="Vector_20" d="M46.3629 7.13428H16.075C13.4074 9.02403 11.0005 11.2561 8.92847 13.7779H49.1643C48.3777 11.2902 47.4465 9.04068 46.3629 7.13428Z" fill="#F3F4F5"/>
<path id="Vector_21" d="M16.0747 7.13436H46.3627C44.2158 3.35779 41.4854 0.905977 38.1725 0.489014H35.0257C27.9871 0.895491 21.4877 3.29796 16.0747 7.13436Z" fill="#E73625"/>
<path id="Vector_22" d="M2.00244 27.068H51.7836C51.5459 24.785 51.2253 22.5574 50.8189 20.4243H4.59273C3.52241 22.5304 2.65179 24.7522 2.00244 27.068Z" fill="#F3F4F5"/>
<path id="Vector_23" d="M8.92789 13.778C7.25217 15.8187 5.8002 18.0474 4.59326 20.4227H50.8188C50.3707 18.0735 49.8166 15.8448 49.1637 13.778H8.92789Z" fill="#E73625"/>
<path id="Vector_24" d="M0.640381 36.9442C0.640381 38.0952 0.700366 39.2341 0.80476 40.3579H52.2298C52.306 38.1493 52.3071 35.924 52.2351 33.7143H0.790882C0.697436 34.7795 0.640381 35.8549 0.640381 36.9442Z" fill="#F3F4F5"/>
<path id="Vector_25" d="M0.790771 33.7128H52.2343C52.1611 31.4702 52.0106 29.2449 51.7839 27.0692H2.00172C1.40141 29.2113 0.990309 31.4309 0.790771 33.7128Z" fill="#E73625"/>
<path id="Vector_26" d="M51.766 47.0029H2.05518C2.7184 49.321 3.60352 51.544 4.68818 53.6476H50.7822C51.1951 51.5168 51.5231 49.2892 51.766 47.0029Z" fill="#F3F4F5"/>
<path id="Vector_27" d="M2.05481 47.0028H51.7656C51.9969 44.8282 52.1519 42.6023 52.2298 40.3591H0.804688C1.01625 42.6421 1.44247 44.8617 2.05481 47.0028Z" fill="#E73625"/>
<path id="Vector_28" d="M16.3344 66.937H46.251C47.3542 65.037 48.3056 62.7915 49.1061 60.2934H9.08301C11.1873 62.8203 13.6281 65.0549 16.3344 66.937Z" fill="#F3F4F5"/>
<g id="Group_3">
<path id="Vector_29" d="M4.68872 53.6481C5.91417 56.0256 7.3868 58.2544 9.08333 60.2928H49.1064C49.7673 58.2296 50.3272 55.9997 50.7821 53.6481H4.68872Z" fill="#E73625"/>
<path id="Vector_30" d="M35.616 73.4306C35.6899 73.4329 35.7636 73.4363 35.8375 73.4386C36.277 73.4542 36.7175 73.4645 37.1608 73.4645C40.8751 73.4645 43.9037 70.9809 46.25 66.9391H16.3369C21.8492 70.7729 28.4657 73.1325 35.616 73.4306Z" fill="#E73625"/>
</g>
<path id="Vector_31" d="M36.4063 0.44165C17.6912 0.822376 2.43754 15.2725 0.795898 33.6533H36.4069V0.44165H36.4063Z" fill="#283991"/>
<g id="Group_4">
<path id="Vector_32" d="M7.94776 21.1146L8.50413 22.8278H10.3067L8.84846 23.8872L9.40544 25.6016L7.94776 24.5416L6.49055 25.6016L7.04645 23.8872L5.58862 22.8278H7.39125L7.94776 21.1146Z" fill="#EFEFEF"/>
<path id="Vector_33" d="M7.94776 27.1672L8.50413 28.8814H10.3067L8.84846 29.9408L9.40544 31.6552L7.94776 30.5952L6.49055 31.6552L7.04645 29.9408L5.58862 28.8814H7.39125L7.94776 27.1672Z" fill="#EFEFEF"/>
<path id="Vector_34" d="M14.0016 12.0335L14.5581 13.7473H16.3601L14.9023 14.8073L15.4588 16.5205L14.0016 15.4617L12.5438 16.5205L13.1003 14.8073L11.6418 13.7473H13.4445L14.0016 12.0335Z" fill="#EFEFEF"/>
<path id="Vector_35" d="M14.0016 18.0871L14.5581 19.8009H16.3601L14.9023 20.8597L15.4588 22.5741L14.0016 21.5153L12.5438 22.5741L13.1003 20.8597L11.6418 19.8009H13.4445L14.0016 18.0871Z" fill="#EFEFEF"/>
<path id="Vector_36" d="M14.0016 24.1408L14.5581 25.8552H16.3601L14.9023 26.9134L15.4588 28.6278L14.0016 27.568L12.5438 28.6278L13.1003 26.9134L11.6418 25.8552H13.4445L14.0016 24.1408Z" fill="#EFEFEF"/>
<path id="Vector_37" d="M3.35188 28.6278L2.79491 26.9134L4.25273 25.8546H2.45119L2.41079 25.7296C2.21295 26.3414 2.03423 26.9607 1.86938 27.5869L1.89483 27.568L3.35188 28.6278Z" fill="#EFEFEF"/>
<path id="Vector_38" d="M6.49052 19.5479L7.94773 18.488L9.40556 19.5479L8.84858 17.8334L10.3064 16.7736H8.50379L7.94727 15.0604L7.39076 16.7736H6.72645C6.60309 16.9605 6.48374 17.1485 6.36377 17.3381L7.04658 17.8334L6.49052 19.5479Z" fill="#EFEFEF"/>
<path id="Vector_39" d="M14.0018 9.40805L15.459 10.4668L14.9025 8.75362L16.3597 7.69379H15.3188C14.4348 8.3547 13.5819 9.05416 12.7625 9.79217L12.5427 10.4668L14.0018 9.40805Z" fill="#EFEFEF"/>
<path id="Vector_40" d="M18.5974 7.44051L20.0552 6.38067L21.5125 7.44051L20.9559 5.72608L22.4131 4.66733H20.6111L20.5356 4.43665C19.9249 4.7486 19.3206 5.07319 18.73 5.41861L19.1533 5.72593L18.5974 7.44051Z" fill="#EFEFEF"/>
<path id="Vector_41" d="M20.0554 9.0072L20.6119 10.7199H22.4139L20.9561 11.7798L21.5126 13.4942L20.0554 12.4342L18.5976 13.4942L19.1541 11.7798L17.6958 10.7199H19.4983L20.0554 9.0072Z" fill="#EFEFEF"/>
<path id="Vector_42" d="M20.0554 15.0609L20.6119 16.7736H22.4139L20.9561 17.8334L21.5126 19.5478L20.0554 18.4878L18.5976 19.5478L19.1541 17.8334L17.6958 16.7736H19.4983L20.0554 15.0609Z" fill="#EFEFEF"/>
<path id="Vector_43" d="M20.0554 21.1146L20.6119 22.8278H22.4139L20.9561 23.8872L21.5126 25.6016L20.0554 24.5416L18.5976 25.6016L19.1541 23.8872L17.6958 22.8278H19.4983L20.0554 21.1146Z" fill="#EFEFEF"/>
<path id="Vector_44" d="M20.0554 27.1672L20.6119 28.8814H22.4139L20.9561 29.9408L21.5126 31.6552L20.0554 30.5952L18.5976 31.6552L19.1541 29.9408L17.6958 28.8814H19.4983L20.0554 27.1672Z" fill="#EFEFEF"/>
<path id="Vector_45" d="M26.1091 5.97986L26.6656 7.69366H28.4676L27.0104 8.75365L27.5663 10.4668L26.1091 9.40808L24.6508 10.4668L25.2078 8.75365L23.7495 7.69366H25.552L26.1091 5.97986Z" fill="#EFEFEF"/>
<path id="Vector_46" d="M26.1091 12.0335L26.6656 13.7473H28.4676L27.0104 14.8073L27.5663 16.5205L26.1091 15.4617L24.6508 16.5205L25.2078 14.8073L23.7495 13.7473H25.552L26.1091 12.0335Z" fill="#EFEFEF"/>
<path id="Vector_47" d="M26.1091 18.0871L26.6656 19.8009H28.4676L27.0104 20.8597L27.5663 22.5741L26.1091 21.5153L24.6508 22.5741L25.2078 20.8597L23.7495 19.8009H25.552L26.1091 18.0871Z" fill="#EFEFEF"/>
<path id="Vector_48" d="M26.1091 24.1408L26.6656 25.8552H28.4676L27.0104 26.9134L27.5663 28.6278L26.1091 27.568L24.6508 28.6278L25.2078 26.9134L23.7495 25.8552H25.552L26.1091 24.1408Z" fill="#EFEFEF"/>
<path id="Vector_49" d="M32.1626 2.95355L32.7191 4.66736H34.5211L33.0633 5.72611L33.6198 7.44053L32.1626 6.38054L30.7043 7.44053L31.2613 5.72611L29.803 4.66736H31.605L32.1626 2.95355Z" fill="#EFEFEF"/>
<path id="Vector_50" d="M32.1626 9.0072L32.7191 10.7199H34.5211L33.0633 11.7798L33.6198 13.4942L32.1626 12.4342L30.7043 13.4942L31.2613 11.7798L29.803 10.7199H31.605L32.1626 9.0072Z" fill="#EFEFEF"/>
<path id="Vector_51" d="M32.1626 15.0609L32.7191 16.7736H34.5211L33.0633 17.8334L33.6198 19.5478L32.1626 18.4878L30.7043 19.5478L31.2613 17.8334L29.803 16.7736H31.605L32.1626 15.0609Z" fill="#EFEFEF"/>
<path id="Vector_52" d="M32.1626 21.1146L32.7191 22.8278H34.5211L33.0633 23.8872L33.6198 25.6016L32.1626 24.5416L30.7043 25.6016L31.2613 23.8872L29.803 22.8278H31.605L32.1626 21.1146Z" fill="#EFEFEF"/>
<path id="Vector_53" d="M32.1626 27.1672L32.7191 28.8814H34.5211L33.0633 29.9408L33.6198 31.6552L32.1626 30.5952L30.7043 31.6552L31.2613 29.9408L29.803 28.8814H31.605L32.1626 27.1672Z" fill="#EFEFEF"/>
</g>
</g>
<defs>
<clipPath id="clip0_1930_1899">
<rect width="73.0421" height="73.0421" fill="white" transform="translate(0.640137 0.422729)"/>
</clipPath>
</defs>
</svg>
